<svg width="40" height="40" viewBox="0 0 40 40" fill="none" xmlns="http://www.w3.org/2000/svg">
<circle cx="20" cy="20" r="20" fill="#D73A49"/>
<path d="M25.4 10.625C23.4031 10.625 21.8 12.2949 21.8 14.375C21.8 15.752 22.5312 16.9531 23.6 17.5977V18.125C23.6 20 21.8 21.875 20 21.875C18.5094 21.875 17.3281 22.1973 16.4 22.7246V13.8477C17.4688 13.2031 18.2 12.002 18.2 10.625C18.2 8.54492 16.5969 6.875 14.6 6.875C12.6031 6.875 11 8.54492 11 10.625C11 12.002 11.7312 13.2031 12.8 13.8477V26.123C11.7312 26.7676 11 27.9688 11 29.3457C11 31.4258 12.6031 33.0957 14.6 33.0957C16.5969 33.0957 18.2 31.4258 18.2 29.3457C18.2 28.3496 17.8344 27.4707 17.2437 26.7969C17.7781 26.123 18.6219 25.5957 20 25.5957C23.6 25.5957 27.2 21.8457 27.2 18.0957V17.5684C28.2687 16.9238 29 15.7227 29 14.3457C29 12.2656 27.3969 10.5957 25.4 10.5957V10.625ZM14.6 8.75C15.5844 8.75 16.4 9.59961 16.4 10.625C16.4 11.6504 15.5844 12.5 14.6 12.5C13.6156 12.5 12.8 11.6504 12.8 10.625C12.8 9.59961 13.6156 8.75 14.6 8.75ZM14.6 31.25C13.6156 31.25 12.8 30.4004 12.8 29.375C12.8 28.3496 13.6156 27.5 14.6 27.5C15.5844 27.5 16.4 28.3496 16.4 29.375C16.4 30.4004 15.5844 31.25 14.6 31.25ZM25.4 16.25C24.4156 16.25 23.6 15.4004 23.6 14.375C23.6 13.3496 24.4156 12.5 25.4 12.5C26.3844 12.5 27.2 13.3496 27.2 14.375C27.2 15.4004 26.3844 16.25 25.4 16.25Z" fill="black"/>
</svg>
