<svg width="40" height="40" viewBox="0 0 40 40" fill="none" xmlns="http://www.w3.org/2000/svg">
<circle cx="20" cy="20" r="20" fill="#35A744"/>
<path d="M18.3333 13.5H16.6667V15.125H18.3333V13.5ZM18.3333 10.25H16.6667V11.875H18.3333V10.25ZM28.3333 7C27.5 7 12.5 7 11.6667 7C10.8333 7 10 7.8125 10 8.625C10 9.4375 10 27.3125 10 28.125C10 28.9375 10.8333 29.75 11.6667 29.75C12.5 29.75 15 29.75 15 29.75V33L17.5 30.5625L20 33V29.75C20 29.75 27.5 29.75 28.3333 29.75C29.1667 29.75 30 28.9375 30 28.125C30 27.3125 30 9.4375 30 8.625C30 7.8125 29.1667 7 28.3333 7ZM28.3333 27.3125C28.3333 27.7188 27.9427 28.125 27.5 28.125C27.0573 28.125 20 28.125 20 28.125V26.5H15V28.125C15 28.125 12.9427 28.125 12.5 28.125C12.0573 28.125 11.6667 27.6934 11.6667 27.3125C11.6667 26.9316 11.6667 24.875 11.6667 24.875H28.3333C28.3333 24.875 28.3333 26.9062 28.3333 27.3125ZM28.3333 23.25H15V8.625H28.3594L28.3333 23.25ZM18.3333 20H16.6667V21.625H18.3333V20ZM18.3333 16.75H16.6667V18.375H18.3333V16.75Z" fill="black"/>
</svg>
