<svg width="40" height="40" viewBox="0 0 40 40" fill="none" xmlns="http://www.w3.org/2000/svg">
<circle cx="20" cy="20" r="20" fill="#D73A49"/>
<path fill-rule="evenodd" clip-rule="evenodd" d="M30 29.3604C30 29.7953 29.8248 30.2123 29.5128 30.5198C29.2009 30.8273 28.7778 31 28.3367 31H11.6683C11.4492 31.0002 11.2321 30.9578 11.0296 30.8753C10.8271 30.7927 10.6431 30.6716 10.4882 30.5188C10.3332 30.3661 10.2103 30.1847 10.1265 29.9851C10.0428 29.7855 9.99978 29.5715 10 29.3555V27.7143C10 23.3886 16.6667 21.1429 16.6667 21.1429C16.6667 21.1429 17.0483 20.4709 16.6667 19.5C15.265 18.4814 15.0933 16.8879 15 12.9286C15.2883 8.96436 18.1117 8 20 8C21.8883 8 24.7117 8.96271 25 12.9286C24.9067 16.8879 24.735 18.4814 23.3333 19.5C22.9517 20.4693 23.3333 21.1429 23.3333 21.1429C23.3333 21.1429 30 23.3886 30 27.7143V29.3604Z" fill="black"/>
</svg>
