<svg width="40" height="40" viewBox="0 0 40 40" fill="none" xmlns="http://www.w3.org/2000/svg">
<circle cx="20" cy="20" r="20" fill="#0366D6"/>
<path fill-rule="evenodd" clip-rule="evenodd" d="M22.5 15.7692L26.6667 20L22.5 24.2308L21.25 22.9615L24.1667 20L21.25 17.0385L22.5 15.7692ZM17.5 15.7692L13.3333 20L17.5 24.2308L18.75 22.9615L15.8333 20L18.75 17.0385L17.5 15.7692ZM10 29.3077V10.6923C10 9.76154 10.75 9 11.6667 9H28.3333C29.25 9 30 9.76154 30 10.6923V29.3077C30 30.2385 29.25 31 28.3333 31H11.6667C10.75 31 10 30.2385 10 29.3077ZM11.6667 29.3077H28.3333V10.6923H11.6667V29.3077Z" fill="black"/>
</svg>
